<mxfile host="app.diagrams.net" modified="2023-03-15T14:48:49.978Z" agent="5.0 (Windows NT 10.0; Win64; x64) AppleWebKit/537.36 (KHTML, like Gecko) Chrome/111.0.0.0 Safari/537.36" etag="dPMNZ_UdU9Thzg7L-1pj" version="21.0.6" type="github">
  <diagram name="Sayfa -1" id="NuL5u8f4rvg05lLBTqzj">
    <mxGraphModel dx="808" dy="458" grid="1" gridSize="10" guides="1" tooltips="1" connect="1" arrows="1" fold="1" page="1" pageScale="1" pageWidth="827" pageHeight="1169" math="0" shadow="0">
      <root>
        <mxCell id="0" />
        <mxCell id="1" parent="0" />
        <mxCell id="DFQlKdHeUHbAnrmWVEcq-40" value="" style="endArrow=none;html=1;rounded=0;entryX=0.776;entryY=0.015;entryDx=0;entryDy=0;entryPerimeter=0;" parent="1" edge="1">
          <mxGeometry width="50" height="50" relative="1" as="geometry">
            <mxPoint x="134" y="370" as="sourcePoint" />
            <mxPoint x="360" y="180" as="targetPoint" />
          </mxGeometry>
        </mxCell>
        <mxCell id="Zzir2YRk7TSLUIwWJMRr-7" value="" style="endArrow=none;html=1;rounded=0;" parent="1" edge="1">
          <mxGeometry width="50" height="50" relative="1" as="geometry">
            <mxPoint x="150" y="150" as="sourcePoint" />
            <mxPoint x="430" y="390" as="targetPoint" />
          </mxGeometry>
        </mxCell>
        <mxCell id="_aS-gf1yFBO41Lf1sGFI-1" value="" style="rounded=0;whiteSpace=wrap;html=1;fontSize=16;gradientColor=#FFEE59;strokeColor=none;gradientDirection=south;opacity=60;" vertex="1" parent="1">
          <mxGeometry x="120" y="205" width="210" height="50" as="geometry" />
        </mxCell>
        <mxCell id="Zzir2YRk7TSLUIwWJMRr-4" value="" style="endArrow=classic;html=1;rounded=0;" parent="1" edge="1">
          <mxGeometry width="50" height="50" relative="1" as="geometry">
            <mxPoint x="120" y="440" as="sourcePoint" />
            <mxPoint x="120" y="80" as="targetPoint" />
          </mxGeometry>
        </mxCell>
        <mxCell id="Zzir2YRk7TSLUIwWJMRr-5" value="" style="endArrow=classic;html=1;rounded=0;" parent="1" edge="1">
          <mxGeometry width="50" height="50" relative="1" as="geometry">
            <mxPoint x="120" y="440" as="sourcePoint" />
            <mxPoint x="480" y="440" as="targetPoint" />
          </mxGeometry>
        </mxCell>
        <mxCell id="Zzir2YRk7TSLUIwWJMRr-6" value="" style="endArrow=none;html=1;rounded=0;" parent="1" edge="1">
          <mxGeometry width="50" height="50" relative="1" as="geometry">
            <mxPoint x="160" y="400" as="sourcePoint" />
            <mxPoint x="440" y="160" as="targetPoint" />
          </mxGeometry>
        </mxCell>
        <mxCell id="Zzir2YRk7TSLUIwWJMRr-8" value="" style="endArrow=none;html=1;rounded=0;" parent="1" edge="1">
          <mxGeometry width="50" height="50" relative="1" as="geometry">
            <mxPoint x="220" y="110" as="sourcePoint" />
            <mxPoint x="500" y="350" as="targetPoint" />
          </mxGeometry>
        </mxCell>
        <mxCell id="DFQlKdHeUHbAnrmWVEcq-1" value="&lt;font style=&quot;font-size: 12px;&quot;&gt;Price per liter in Canadian Dollars (Can$)&lt;/font&gt;" style="text;strokeColor=none;fillColor=none;html=1;fontSize=24;fontStyle=1;verticalAlign=middle;align=center;" parent="1" vertex="1">
          <mxGeometry x="70" y="40" width="100" height="40" as="geometry" />
        </mxCell>
        <mxCell id="DFQlKdHeUHbAnrmWVEcq-2" value="&lt;font style=&quot;font-size: 12px;&quot;&gt;Quantity of sugary drinks in million liters&lt;/font&gt;" style="text;strokeColor=none;fillColor=none;html=1;fontSize=24;fontStyle=1;verticalAlign=middle;align=center;" parent="1" vertex="1">
          <mxGeometry x="500" y="430" width="100" height="40" as="geometry" />
        </mxCell>
        <mxCell id="DFQlKdHeUHbAnrmWVEcq-7" value="&lt;font style=&quot;font-size: 15px;&quot;&gt;D = MPB&lt;/font&gt;" style="text;strokeColor=none;fillColor=none;html=1;fontSize=24;fontStyle=1;verticalAlign=middle;align=center;" parent="1" vertex="1">
          <mxGeometry x="490" y="350" width="50" height="30" as="geometry" />
        </mxCell>
        <mxCell id="DFQlKdHeUHbAnrmWVEcq-8" value="&lt;span style=&quot;font-size: 15px;&quot;&gt;MSB&lt;/span&gt;" style="text;strokeColor=none;fillColor=none;html=1;fontSize=24;fontStyle=1;verticalAlign=middle;align=center;" parent="1" vertex="1">
          <mxGeometry x="430" y="390" width="50" height="30" as="geometry" />
        </mxCell>
        <mxCell id="DFQlKdHeUHbAnrmWVEcq-10" value="" style="endArrow=none;dashed=1;html=1;rounded=0;strokeColor=#666666;" parent="1" edge="1">
          <mxGeometry width="50" height="50" relative="1" as="geometry">
            <mxPoint x="360" y="440" as="sourcePoint" />
            <mxPoint x="360" y="230" as="targetPoint" />
          </mxGeometry>
        </mxCell>
        <mxCell id="DFQlKdHeUHbAnrmWVEcq-11" value="" style="endArrow=none;dashed=1;html=1;rounded=0;strokeColor=#666666;startArrow=none;" parent="1" source="DFQlKdHeUHbAnrmWVEcq-17" edge="1">
          <mxGeometry width="50" height="50" relative="1" as="geometry">
            <mxPoint x="120" y="230" as="sourcePoint" />
            <mxPoint x="360" y="230" as="targetPoint" />
          </mxGeometry>
        </mxCell>
        <mxCell id="DFQlKdHeUHbAnrmWVEcq-12" value="" style="endArrow=none;dashed=1;html=1;rounded=0;strokeColor=#666666;" parent="1" edge="1">
          <mxGeometry width="50" height="50" relative="1" as="geometry">
            <mxPoint x="300" y="280" as="sourcePoint" />
            <mxPoint x="120" y="280" as="targetPoint" />
          </mxGeometry>
        </mxCell>
        <mxCell id="DFQlKdHeUHbAnrmWVEcq-14" value="" style="endArrow=none;dashed=1;html=1;rounded=0;strokeColor=#666666;startArrow=none;" parent="1" source="DFQlKdHeUHbAnrmWVEcq-15" edge="1">
          <mxGeometry width="50" height="50" relative="1" as="geometry">
            <mxPoint x="300" y="440.7442030795785" as="sourcePoint" />
            <mxPoint x="300" y="280" as="targetPoint" />
          </mxGeometry>
        </mxCell>
        <mxCell id="DFQlKdHeUHbAnrmWVEcq-16" value="" style="endArrow=none;dashed=1;html=1;rounded=0;strokeColor=#666666;" parent="1" target="DFQlKdHeUHbAnrmWVEcq-15" edge="1">
          <mxGeometry width="50" height="50" relative="1" as="geometry">
            <mxPoint x="300" y="440.7442030795785" as="sourcePoint" />
            <mxPoint x="300" y="280" as="targetPoint" />
          </mxGeometry>
        </mxCell>
        <mxCell id="DFQlKdHeUHbAnrmWVEcq-15" value="" style="shape=waypoint;sketch=0;fillStyle=solid;size=6;pointerEvents=1;points=[];fillColor=none;resizable=0;rotatable=0;perimeter=centerPerimeter;snapToPoint=1;" parent="1" vertex="1">
          <mxGeometry x="290" y="270" width="20" height="20" as="geometry" />
        </mxCell>
        <mxCell id="DFQlKdHeUHbAnrmWVEcq-18" value="" style="endArrow=none;dashed=1;html=1;rounded=0;strokeColor=#666666;startArrow=none;" parent="1" target="DFQlKdHeUHbAnrmWVEcq-17" edge="1" source="_aS-gf1yFBO41Lf1sGFI-1">
          <mxGeometry width="50" height="50" relative="1" as="geometry">
            <mxPoint x="120" y="230" as="sourcePoint" />
            <mxPoint x="360" y="230" as="targetPoint" />
          </mxGeometry>
        </mxCell>
        <mxCell id="DFQlKdHeUHbAnrmWVEcq-17" value="" style="shape=waypoint;sketch=0;fillStyle=solid;size=6;pointerEvents=1;points=[];fillColor=none;resizable=0;rotatable=0;perimeter=centerPerimeter;snapToPoint=1;" parent="1" vertex="1">
          <mxGeometry x="350" y="220" width="20" height="20" as="geometry" />
        </mxCell>
        <mxCell id="DFQlKdHeUHbAnrmWVEcq-19" value="" style="shape=waypoint;sketch=0;fillStyle=solid;size=6;pointerEvents=1;points=[];fillColor=none;resizable=0;rotatable=0;perimeter=centerPerimeter;snapToPoint=1;" parent="1" vertex="1">
          <mxGeometry x="350" y="320" width="20" height="20" as="geometry" />
        </mxCell>
        <mxCell id="DFQlKdHeUHbAnrmWVEcq-28" value="&lt;p style=&quot;font-size: 16px;&quot;&gt;P&lt;sub&gt;opt&lt;/sub&gt;&lt;/p&gt;" style="text;strokeColor=none;fillColor=none;html=1;fontSize=24;fontStyle=1;verticalAlign=middle;align=center;" parent="1" vertex="1">
          <mxGeometry x="50" y="259.38" width="100" height="40" as="geometry" />
        </mxCell>
        <mxCell id="DFQlKdHeUHbAnrmWVEcq-29" value="&lt;font style=&quot;font-size: 16px;&quot;&gt;Q&lt;sub&gt;opt&lt;/sub&gt;&lt;/font&gt;" style="text;strokeColor=none;fillColor=none;html=1;fontSize=24;fontStyle=1;verticalAlign=middle;align=center;" parent="1" vertex="1">
          <mxGeometry x="250" y="432.5" width="100" height="40" as="geometry" />
        </mxCell>
        <mxCell id="DFQlKdHeUHbAnrmWVEcq-30" value="&lt;font style=&quot;font-size: 16px;&quot;&gt;P&lt;font style=&quot;font-size: 16px;&quot;&gt;&lt;sub&gt;1&lt;/sub&gt;&lt;/font&gt;&lt;/font&gt;" style="text;strokeColor=none;fillColor=none;html=1;fontSize=24;fontStyle=1;verticalAlign=middle;align=center;" parent="1" vertex="1">
          <mxGeometry x="50" y="210" width="100" height="40" as="geometry" />
        </mxCell>
        <mxCell id="DFQlKdHeUHbAnrmWVEcq-32" value="&lt;b style=&quot;font-size: 16px;&quot;&gt;&lt;font style=&quot;font-size: 16px;&quot;&gt;Q&lt;sub&gt;1&lt;/sub&gt;&lt;/font&gt;&lt;/b&gt;" style="text;html=1;strokeColor=none;fillColor=none;align=center;verticalAlign=middle;whiteSpace=wrap;rounded=0;" parent="1" vertex="1">
          <mxGeometry x="330" y="440" width="60" height="34" as="geometry" />
        </mxCell>
        <mxCell id="DFQlKdHeUHbAnrmWVEcq-33" value="" style="endArrow=none;html=1;rounded=0;startArrow=none;entryX=0.009;entryY=0.683;entryDx=0;entryDy=0;entryPerimeter=0;" parent="1" target="DFQlKdHeUHbAnrmWVEcq-36" edge="1">
          <mxGeometry width="50" height="50" relative="1" as="geometry">
            <mxPoint x="360" y="180" as="sourcePoint" />
            <mxPoint x="414" y="130" as="targetPoint" />
          </mxGeometry>
        </mxCell>
        <mxCell id="DFQlKdHeUHbAnrmWVEcq-36" value="&lt;font style=&quot;font-size: 15px;&quot;&gt;S&lt;/font&gt;&lt;font style=&quot;font-size: 12px;&quot;&gt;+tax&lt;/font&gt;" style="text;strokeColor=none;fillColor=none;html=1;fontSize=24;fontStyle=1;verticalAlign=middle;align=center;" parent="1" vertex="1">
          <mxGeometry x="414" y="110" width="50" height="30" as="geometry" />
        </mxCell>
        <mxCell id="DFQlKdHeUHbAnrmWVEcq-37" value="&lt;font style=&quot;font-size: 15px;&quot;&gt;S&lt;/font&gt;" style="text;strokeColor=none;fillColor=none;html=1;fontSize=24;fontStyle=1;verticalAlign=middle;align=center;" parent="1" vertex="1">
          <mxGeometry x="430" y="140" width="50" height="30" as="geometry" />
        </mxCell>
        <mxCell id="DFQlKdHeUHbAnrmWVEcq-47" value="" style="shape=waypoint;sketch=0;fillStyle=solid;size=6;pointerEvents=1;points=[];fillColor=none;resizable=0;rotatable=0;perimeter=centerPerimeter;snapToPoint=1;" parent="1" vertex="1">
          <mxGeometry x="320" y="194" width="20" height="20" as="geometry" />
        </mxCell>
        <mxCell id="DFQlKdHeUHbAnrmWVEcq-48" style="edgeStyle=orthogonalEdgeStyle;rounded=0;orthogonalLoop=1;jettySize=auto;html=1;entryX=1;entryY=1;entryDx=0;entryDy=0;entryPerimeter=0;" parent="1" source="DFQlKdHeUHbAnrmWVEcq-47" target="DFQlKdHeUHbAnrmWVEcq-47" edge="1">
          <mxGeometry relative="1" as="geometry" />
        </mxCell>
        <mxCell id="DFQlKdHeUHbAnrmWVEcq-49" style="edgeStyle=orthogonalEdgeStyle;rounded=0;orthogonalLoop=1;jettySize=auto;html=1;entryX=0.523;entryY=-0.009;entryDx=0;entryDy=0;entryPerimeter=0;" parent="1" source="DFQlKdHeUHbAnrmWVEcq-47" target="DFQlKdHeUHbAnrmWVEcq-47" edge="1">
          <mxGeometry relative="1" as="geometry" />
        </mxCell>
        <mxCell id="DFQlKdHeUHbAnrmWVEcq-50" value="" style="shape=waypoint;sketch=0;fillStyle=solid;size=6;pointerEvents=1;points=[];fillColor=none;resizable=0;rotatable=0;perimeter=centerPerimeter;snapToPoint=1;" parent="1" vertex="1">
          <mxGeometry x="320" y="244" width="20" height="20" as="geometry" />
        </mxCell>
        <mxCell id="DFQlKdHeUHbAnrmWVEcq-53" value="" style="endArrow=none;dashed=1;html=1;rounded=0;entryX=0.653;entryY=1.006;entryDx=0;entryDy=0;entryPerimeter=0;exitDx=0;exitDy=0;exitPerimeter=0;startArrow=none;strokeColor=#666666;" parent="1" source="DFQlKdHeUHbAnrmWVEcq-59" target="DFQlKdHeUHbAnrmWVEcq-47" edge="1">
          <mxGeometry width="50" height="50" relative="1" as="geometry">
            <mxPoint x="330" y="430" as="sourcePoint" />
            <mxPoint x="310" y="290" as="targetPoint" />
          </mxGeometry>
        </mxCell>
        <mxCell id="DFQlKdHeUHbAnrmWVEcq-54" value="" style="endArrow=none;dashed=1;html=1;rounded=0;entryX=0.447;entryY=0.413;entryDx=0;entryDy=0;entryPerimeter=0;strokeColor=#666666;" parent="1" target="DFQlKdHeUHbAnrmWVEcq-47" edge="1">
          <mxGeometry width="50" height="50" relative="1" as="geometry">
            <mxPoint x="120" y="204" as="sourcePoint" />
            <mxPoint x="330" y="210" as="targetPoint" />
          </mxGeometry>
        </mxCell>
        <mxCell id="DFQlKdHeUHbAnrmWVEcq-55" value="&lt;font style=&quot;font-size: 16px;&quot;&gt;Q&lt;sub&gt;2&lt;/sub&gt;&lt;/font&gt;" style="text;strokeColor=none;fillColor=none;html=1;fontSize=24;fontStyle=1;verticalAlign=middle;align=center;" parent="1" vertex="1">
          <mxGeometry x="320" y="435" width="30" height="35" as="geometry" />
        </mxCell>
        <mxCell id="DFQlKdHeUHbAnrmWVEcq-56" value="&lt;font style=&quot;font-size: 16px;&quot;&gt;P&lt;sub&gt;2&lt;/sub&gt;&lt;/font&gt;" style="text;strokeColor=none;fillColor=none;html=1;fontSize=24;fontStyle=1;verticalAlign=middle;align=center;" parent="1" vertex="1">
          <mxGeometry x="50" y="184" width="100" height="40" as="geometry" />
        </mxCell>
        <mxCell id="DFQlKdHeUHbAnrmWVEcq-57" value="&lt;span style=&quot;color: rgb(0, 0, 0); font-family: Helvetica; font-size: 16px; font-style: normal; font-variant-ligatures: normal; font-variant-caps: normal; font-weight: 700; letter-spacing: normal; orphans: 2; text-align: center; text-indent: 0px; text-transform: none; widows: 2; word-spacing: 0px; -webkit-text-stroke-width: 0px; background-color: rgb(251, 251, 251); text-decoration-thickness: initial; text-decoration-style: initial; text-decoration-color: initial; float: none; display: inline !important;&quot;&gt;P&lt;/span&gt;&lt;font style=&quot;border-color: var(--border-color); color: rgb(0, 0, 0); font-family: Helvetica; font-size: 16px; font-style: normal; font-variant-ligatures: normal; font-variant-caps: normal; font-weight: 700; letter-spacing: normal; orphans: 2; text-align: center; text-indent: 0px; text-transform: none; widows: 2; word-spacing: 0px; -webkit-text-stroke-width: 0px; background-color: rgb(251, 251, 251); text-decoration-thickness: initial; text-decoration-style: initial; text-decoration-color: initial;&quot;&gt;&lt;sub style=&quot;border-color: var(--border-color);&quot;&gt;3&lt;/sub&gt;&lt;/font&gt;" style="text;whiteSpace=wrap;html=1;" parent="1" vertex="1">
          <mxGeometry x="90" y="240" width="20" height="30" as="geometry" />
        </mxCell>
        <mxCell id="DFQlKdHeUHbAnrmWVEcq-58" value="" style="endArrow=none;dashed=1;html=1;rounded=0;entryX=0.386;entryY=0.605;entryDx=0;entryDy=0;entryPerimeter=0;strokeColor=#666666;" parent="1" target="DFQlKdHeUHbAnrmWVEcq-50" edge="1">
          <mxGeometry width="50" height="50" relative="1" as="geometry">
            <mxPoint x="120" y="254" as="sourcePoint" />
            <mxPoint x="330" y="260" as="targetPoint" />
          </mxGeometry>
        </mxCell>
        <mxCell id="DFQlKdHeUHbAnrmWVEcq-60" value="" style="endArrow=none;dashed=1;html=1;rounded=0;entryDx=0;entryDy=0;entryPerimeter=0;exitX=0.333;exitY=0.143;exitDx=0;exitDy=0;exitPerimeter=0;strokeColor=#666666;" parent="1" source="DFQlKdHeUHbAnrmWVEcq-55" target="DFQlKdHeUHbAnrmWVEcq-59" edge="1">
          <mxGeometry width="50" height="50" relative="1" as="geometry">
            <mxPoint x="330" y="440" as="sourcePoint" />
            <mxPoint x="330" y="204" as="targetPoint" />
          </mxGeometry>
        </mxCell>
        <mxCell id="DFQlKdHeUHbAnrmWVEcq-59" value="" style="shape=waypoint;sketch=0;fillStyle=solid;size=6;pointerEvents=1;points=[];fillColor=none;resizable=0;rotatable=0;perimeter=centerPerimeter;snapToPoint=1;" parent="1" vertex="1">
          <mxGeometry x="320" y="294" width="20" height="20" as="geometry" />
        </mxCell>
        <mxCell id="DFQlKdHeUHbAnrmWVEcq-61" value="&lt;font style=&quot;font-size: 14px;&quot;&gt;a&lt;/font&gt;" style="text;strokeColor=none;fillColor=none;html=1;fontSize=24;fontStyle=1;verticalAlign=middle;align=center;fontColor=#3333FF;" parent="1" vertex="1">
          <mxGeometry x="294" y="274" width="16" height="20" as="geometry" />
        </mxCell>
        <mxCell id="DFQlKdHeUHbAnrmWVEcq-62" value="&lt;font style=&quot;font-size: 14px;&quot;&gt;b&lt;/font&gt;" style="text;strokeColor=none;fillColor=none;html=1;fontSize=24;fontStyle=1;verticalAlign=middle;align=center;fontColor=#3333FF;" parent="1" vertex="1">
          <mxGeometry x="324" y="300" width="16" height="20" as="geometry" />
        </mxCell>
        <mxCell id="DFQlKdHeUHbAnrmWVEcq-63" value="&lt;font style=&quot;font-size: 14px;&quot;&gt;c&lt;/font&gt;" style="text;strokeColor=none;fillColor=none;html=1;fontSize=24;fontStyle=1;verticalAlign=middle;align=center;fontColor=#3333FF;" parent="1" vertex="1">
          <mxGeometry x="354" y="330" width="16" height="20" as="geometry" />
        </mxCell>
        <mxCell id="DFQlKdHeUHbAnrmWVEcq-64" value="&lt;font style=&quot;font-size: 14px;&quot;&gt;d&lt;/font&gt;" style="text;strokeColor=none;fillColor=none;html=1;fontSize=24;fontStyle=1;verticalAlign=middle;align=center;fontColor=#3333FF;" parent="1" vertex="1">
          <mxGeometry x="327" y="245" width="16" height="20" as="geometry" />
        </mxCell>
        <mxCell id="DFQlKdHeUHbAnrmWVEcq-65" value="&lt;font style=&quot;font-size: 14px;&quot;&gt;e&lt;/font&gt;" style="text;strokeColor=none;fillColor=none;html=1;fontSize=24;fontStyle=1;verticalAlign=middle;align=center;fontColor=#3333FF;" parent="1" vertex="1">
          <mxGeometry x="354" y="225" width="16" height="20" as="geometry" />
        </mxCell>
        <mxCell id="DFQlKdHeUHbAnrmWVEcq-66" value="&lt;font style=&quot;font-size: 14px;&quot;&gt;f&lt;/font&gt;" style="text;strokeColor=none;fillColor=none;html=1;fontSize=24;fontStyle=1;verticalAlign=middle;align=center;fontColor=#3333FF;" parent="1" vertex="1">
          <mxGeometry x="324" y="200" width="16" height="20" as="geometry" />
        </mxCell>
        <mxCell id="bkPeaVS457P7NoUtxKrd-1" value="Market for the taxed sugary drinks in Newfoundland &amp;amp; Labrador" style="text;html=1;strokeColor=none;fillColor=none;align=center;verticalAlign=middle;whiteSpace=wrap;rounded=0;fontStyle=1" parent="1" vertex="1">
          <mxGeometry x="170" y="20" width="316" height="30" as="geometry" />
        </mxCell>
        <mxCell id="bkPeaVS457P7NoUtxKrd-2" value="" style="endArrow=classic;html=1;rounded=0;strokeColor=#EA6B66;" parent="1" edge="1">
          <mxGeometry width="50" height="50" relative="1" as="geometry">
            <mxPoint x="370" y="216" as="sourcePoint" />
            <mxPoint x="370" y="175" as="targetPoint" />
          </mxGeometry>
        </mxCell>
        <mxCell id="bkPeaVS457P7NoUtxKrd-3" value="&lt;p style=&quot;line-height: 50%; font-size: 11px;&quot;&gt;&lt;font color=&quot;#ea6b66&quot; style=&quot;font-size: 11px;&quot;&gt;0.20$&lt;/font&gt;&lt;/p&gt;&lt;p style=&quot;line-height: 50%; font-size: 11px;&quot;&gt;&lt;font style=&quot;font-size: 11px;&quot;&gt;&lt;font color=&quot;#ea6b66&quot; style=&quot;font-size: 11px;&quot;&gt;(per&lt;/font&gt;&lt;span style=&quot;color: rgb(234, 107, 102); background-color: initial;&quot;&gt;&amp;nbsp;liter)&lt;/span&gt;&lt;/font&gt;&lt;/p&gt;" style="text;html=1;strokeColor=none;fillColor=none;align=center;verticalAlign=middle;whiteSpace=wrap;rounded=0;rotation=-40;fontStyle=1" parent="1" vertex="1">
          <mxGeometry x="370" y="164" width="50.02" height="30" as="geometry" />
        </mxCell>
        <mxCell id="_aS-gf1yFBO41Lf1sGFI-2" value="" style="endArrow=none;dashed=1;html=1;rounded=0;strokeColor=#666666;" edge="1" parent="1" target="_aS-gf1yFBO41Lf1sGFI-1">
          <mxGeometry width="50" height="50" relative="1" as="geometry">
            <mxPoint x="120" y="230" as="sourcePoint" />
            <mxPoint x="360" y="230" as="targetPoint" />
          </mxGeometry>
        </mxCell>
        <mxCell id="_aS-gf1yFBO41Lf1sGFI-6" value="&lt;font style=&quot;font-size: 12px; font-weight: normal;&quot;&gt;Tax Revenue &lt;br&gt;(Expected to be about 9 million $)&lt;/font&gt;" style="text;strokeColor=none;fillColor=none;html=1;fontSize=16;fontStyle=1;verticalAlign=middle;align=center;shadow=0;" vertex="1" parent="1">
          <mxGeometry x="170" y="205" width="100" height="40" as="geometry" />
        </mxCell>
      </root>
    </mxGraphModel>
  </diagram>
</mxfile>
